#!OML:ASF F:\VICON\USERDATA\INSTALL\rory3\rory3.ASF
:FULLY-SPECIFIED
:DEGREES
115
root 0.58819767642516 17.575585946858364 31.181429612008884 0.8352846550773898 -0.7075642417975391 -0.9223919834431136
lfemur -12.026165275249353 2.71267210119073 -24.237011646187543
ltibia 45.594191377739335
lfoot 2.440458238591033 -9.24915189714118
ltoes -8.815778236988699
rfemur -27.10355608165124 2.5048675143685633 25.596753108256426
rtibia 58.47766947168806
rfoot 2.0068452197653137 -5.432849173486036
rtoes -0.20240223078331399
lowerback 14.670438112867881 0.17484202169296625 0.043332908959199834
upperback -0.8331619682430232 0.9510029777517928 0.9084134300824429
thorax -9.219646818329657 0.4714385134419519 1.2446634249586068
lowerneck -19.93247307705401 -3.728729740059251 -2.512677103128074
upperneck 12.877207527820142 -5.412855323635876 5.457600772512976
head 7.443027559085799 -2.354190925719076 1.4658578526318518
lclavicle 2.9801515526439752e-15 1.1900897868484632e-16
lhumerus -45.7581316521823 -13.27372007977938 95.41207696962249
lradius 112.85705009875547
lwrist 34.04023125172169
lhand -20.811189631813598 2.8974996539823694
lfingers 7.125019999999999
lthumb 5.306432070575228 32.59686262820099
rclavicle 2.9801381671163078e-15 1.1900166246856291e-16
rhumerus -52.44177672740032 11.149276961292394 -98.59212131481502
rradius 110.14450135030098
rwrist -15.247674630236173
rhand -15.772183401766164 38.46163679688757
rfingers 7.125019999999999
rthumb 10.470153020801032 8.465564429589861
116
root 0.5957567174738706 17.60619982960434 32.15073719608458 1.0178487463867156 -0.7192434421796627 -0.8299149104399008
lfemur -12.86253478456153 2.6320723801447268 -24.272916010301515
ltibia 44.980161439225746
lfoot 1.7277273983540713 -9.360604522005096
ltoes -8.266325019790125
rfemur -28.105978254058236 2.8513401015179767 25.780908094232387
rtibia 57.843410420346636
rfoot 1.5652230482211942 -5.118935914183135
rtoes -0.9877562491111205
lowerback 14.526905107621399 0.02959785943552473 -0.039232883689367615
upperback -0.9076491016806583 0.637471497275941 0.9723748163100205
thorax -9.344513060344639 0.2951149776082051 1.1077799231073646
lowerneck -19.959164906967906 -3.6973433027370857 -2.5237032821525314
upperneck 12.961790034868477 -5.279672560899883 5.4064170958444
head 7.442432812484076 -2.366095602468048 1.4499181314920353
lclavicle 2.9801515526439752e-15 1.1900897868484632e-16
lhumerus -45.18723388428412 -12.649809234793734 95.42840369889278
lradius 112.66802447996518
lwrist 34.1322752181184
lhand -20.820794657733778 2.888571661977899
lfingers 7.125019999999999
lthumb 5.372236793301229 32.632092173092744
rclavicle 2.9801381671163078e-15 1.1900166246856291e-16
rhumerus -53.14930586066981 10.872147346288154 -98.53451036572052
rradius 110.22247567500848
rwrist -15.286795640399403
rhand -15.743161401052381 38.469867838875956
rfingers 7.125019999999999
rthumb 10.466889257920755 8.463427674447791
117
root 0.6034058736260738 17.650360080292703 32.53396547118083 1.1506903952949161 -0.830266603818742 -0.7974617781749413
lfemur -10.622120051874358 2.8403570868945094 -24.11138453189954
ltibia 44.49272889073911
lfoot 1.8181739629705003 -9.000812432692797
ltoes -7.755800944002447
rfemur -28.06692164688733 2.8692663190055634 26.033642971471515
rtibia 57.30225931563398
rfoot 0.7298650367174364 -4.971442269195141
rtoes -1.4381674936536393
lowerback 14.381562191168717 -0.07010790904401898 -0.07509030229793323
upperback -0.9837692490365414 0.4276851771183725 1.0795831829527223
thorax -9.27635901136926 0.32702998402523764 1.2750663903541344
lowerneck -19.976917993640914 -3.6747313003461985 -2.5340401311003684
upperneck 12.990304846077887 -5.229814313243362 5.327336029383217
head 7.4421675154730655 -2.346621167621142 1.4662969167851394
lclavicle 2.9801515526439752e-15 1.1900897868484632e-16
lhumerus -45.90876515821716 -12.60527793847358 95.24372158344404
lradius 112.20990448299573
lwrist 34.02649164624555
lhand -20.826831525174054 2.811012241344209
lfingers 7.125019999999999
lthumb 5.366222022959743 32.594909768013565
rclavicle 2.9801381671163078e-15 1.1900166246856291e-16
rhumerus -53.71827886378805 10.623781020726762 -98.43161354243327
rradius 110.33867268875593
rwrist -15.2979251638367
rhand -15.732510051602548 38.48194348107415
rfingers 7.125019999999999
rthumb 10.512516610370017 8.51524156675246
118
root 0.6133722854661408 17.710395780381518 33.5199364256839 1.287569494079442 -0.7986315053883203 -0.7000063978204276
lfemur -13.241417001969774 2.271632281781048 -24.735394092011813
ltibia 44.30677443540863
lfoot 2.547237149247905 -8.90780042120721
ltoes -7.287703832506913
rfemur -28.696026680747593 3.21845211410621 26.166518040560067
rtibia 58.20241393342287
rfoot -0.279983231250152 -5.281747869637473
rtoes -1.6887088311931762
lowerback 14.2378058277062 -0.13482294196893096 -0.05360457983451039
upperback -1.0987989432544745 0.17370239379980323 1.1596512320015568
thorax -9.318256355786415 0.23069971389747335 1.2082068714535736
lowerneck -19.930879070063533 -3.594852894523644 -2.523871284901359
upperneck 13.03177261376586 -5.167496383858618 5.2943359646829835
head 7.418353792150788 -2.3792118725341154 1.449433306395371
lclavicle 2.9801515526439752e-15 1.1900897868484632e-16
lhumerus -45.15035058443601 -11.974205445826303 95.48831188368372
lradius 112.48343526737554
lwrist 34.11476894277194
lhand -20.8156430218888 2.8295598832421027
lfingers 7.125019999999999
lthumb 5.383545312640433 32.50663174940986
rclavicle 2.9801381671163078e-15 1.1900166246856291e-16
rhumerus -54.26974006171511 10.363775260207614 -98.30380384933017
rradius 110.28706734800768
rwrist -15.294908566864505
rhand -15.729260711825283 38.48988682955626
rfingers 7.125019999999999
rthumb 10.495560926520657 8.539966950486363
